<?xml version="1.0" encoding="UTF-8"?> <svg xmlns="http://www.w3.org/2000/svg" width="754" height="196" viewBox="0 0 754 196" fill="none"><path d="M278.563 159.812C242.554 159.812 218.768 136.026 218.768 99.6863C218.768 64.3377 243.71 39.5605 279.884 39.5605C296.403 39.5605 311.434 45.6722 322.831 57.4001L310.443 69.7886C302.679 62.0251 290.952 57.4001 279.719 57.4001C255.107 57.4001 238.094 74.4137 238.094 99.6863C238.094 125.455 253.951 141.973 278.563 141.973C290.126 141.973 299.541 138.999 307.8 132.557V108.771H275.425V91.7577H325.64V140.816C312.755 153.7 297.559 159.812 278.563 159.812Z" fill="#071542"></path><path d="M373.089 159.151C352.276 159.151 338.731 144.285 338.731 120.995V75.9003H357.232V119.838C357.232 134.209 364.5 142.468 376.393 142.468C389.937 142.468 399.022 132.557 399.022 118.847V75.9003H417.523V157.5H401.004L400.839 146.928C393.902 155.022 384.321 159.151 373.089 159.151Z" fill="#071542"></path><path d="M472.088 159.812C445.163 159.812 427.819 142.798 427.819 116.7C427.819 91.4273 444.833 74.2485 470.106 74.2485C498.847 74.2485 514.705 93.0791 512.062 123.638H446.815C448.302 135.531 458.213 143.129 472.583 143.129C481.834 143.129 491.084 139.825 496.039 134.705L507.271 145.607C499.178 154.361 486.128 159.812 472.088 159.812ZM446.98 109.267H494.387C493.066 97.7042 484.146 90.271 470.601 90.271C457.717 90.271 449.293 97.2086 446.98 109.267Z" fill="#071542"></path><path d="M555.856 159.482C542.146 159.482 529.923 155.517 519.021 147.424L527.61 134.044C534.878 139.825 545.615 143.129 556.352 143.129C566.758 143.129 572.705 139.825 572.705 133.879C572.705 128.097 567.419 125.289 554.865 123.968C533.557 121.986 521.499 113.066 521.499 98.8604C521.499 83.9942 535.704 73.9181 556.847 73.9181C569.236 73.9181 580.138 77.0566 589.223 83.3334L581.129 96.5479C573.861 91.9228 566.098 89.6103 557.673 89.6103C545.946 89.6103 539.669 92.9139 539.669 98.8604C539.669 104.146 544.459 106.954 556.352 108.276C580.468 110.919 591.04 118.682 591.04 134.044C591.04 149.241 577 159.482 555.856 159.482Z" fill="#071542"></path><path d="M641.282 158.656C624.433 158.656 614.522 148.91 614.522 129.419V91.5925H599.16V75.9003H614.522V54.592L632.857 52.6098V75.9003H656.313V91.5925H632.857V129.419C632.857 137.678 636.656 142.303 644.255 142.303C647.558 142.303 651.358 141.312 654.496 139.825L659.617 154.692C653.34 157.5 648.054 158.656 641.282 158.656Z" fill="#071542"></path><path d="M682.5 195.161L699.018 157.004L666.808 75.9003H686.629L700.835 113.066L709.259 136.522L718.674 113.066L734.036 75.9003H753.858L702.652 195.161H682.5Z" fill="#071542"></path><path d="M99.8931 4.02079C93.9679 -0.0889969 86.1284 -0.143507 80.1465 3.88349L77.8863 5.40505C77.8839 5.40669 77.8815 5.40832 77.879 5.40996L9.49336 51.4474C9.49133 51.4488 9.4893 51.4501 9.48727 51.4515L7.72715 52.6364C2.89656 55.8884 0 61.3302 0 67.1534V158.295C0 167.959 7.835 175.795 17.5 175.795H119.08C128.745 175.795 136.579 167.96 136.579 158.295V86.9823C136.579 81.0299 133.554 75.4856 128.548 72.265L99.365 53.4899C93.6966 49.8431 86.4376 49.7758 80.7025 53.3169L50.1189 72.2008C44.956 75.3886 41.8129 81.0234 41.8129 87.0911V132.65H58.8129V89.3224C58.8129 87.763 59.6202 86.3148 60.9464 85.4948L60.9487 85.4934L87.4885 69.1064C88.9619 68.1967 90.8264 68.2131 92.2834 69.1483L117.518 85.3833C118.803 86.2118 119.579 87.6362 119.579 89.1652V154.295C119.579 156.78 117.565 158.795 115.08 158.795H21.5C19.0147 158.795 17 156.78 17 154.295V69.2825C17 67.7861 17.7438 66.3876 18.9845 65.5512L87.3727 19.5121C88.9094 18.4776 90.9229 18.4906 92.4461 19.5444L158.658 65.4693C158.66 65.471 158.663 65.4726 158.665 65.4743C159.873 66.3156 160.593 67.6946 160.593 69.1669V175.795H177.593V67.0733C177.593 61.3362 174.781 55.9635 170.067 52.6937L168.36 51.5093C168.355 51.5064 168.351 51.5034 168.347 51.5005L99.8931 4.02079Z" fill="#071542"></path></svg> 